/* XPM */
static char *_5ed518faf384f7fdf76ed4c708f1456nWc8sQYVG6OfDFl9[] = {
/* columns rows colors chars-per-pixel */
"16 16 14 1 ",
"  c None",
". c #1F5347",
"X c #2A2A47",
"o c #89DD47",
"O c #108F34",
"+ c #131327",
"@ c #1DAA45",
"# c #3A2032",
"$ c #B95027",
"% c #FFA200",
"& c #FF7D00",
"* c #623436",
"= c #1A1017",
"- c white",
/* pixels */
"      .... X..X ",
"      .oo.XoooX ",
"      .oO+o@OOX ",
"       .O+OOXXX ",
"      #$$$+XX.+ ",
"     #%%&$*+..+ ",
"    *$%&$$*=++  ",
"    *%%%&$*=    ",
"   *$&%$$$*=    ",
"   *%%%&$$=     ",
"   *%&$&$*=     ",
"  *%%&&$*=      ",
"  #&$&$*#       ",
"  #%&$*#        ",
"  #$$*=         ",
"  ##==          "
};
