/* XPM */
static char *_c7b17c560804f1cdeb1312c8b763d5c8EwjBKFCBzZBKUky[] = {
/* columns rows colors chars-per-pixel */
"32 32 14 1 ",
"  c #1A1017",
". c #131327",
"X c #3A2032",
"o c #623436",
"O c #2A2A47",
"+ c #1F5347",
"@ c #B95027",
"# c #FF7D00",
"$ c #108F34",
"% c #1DAA45",
"& c #FFA200",
"* c #89DD47",
"= c #A4C263",
"- c #C0D470",
/* pixels */
"------------++++++++--OO++++OO--",
"------------++++++++--OO++++OO--",
"------------++****++OO******OO--",
"------------++****++OO******OO-=",
"-----=------++**$$..**%%$$$$OO--",
"------------++**$$..**%%$$$$OO--",
"--------------++$$..$$$$OOOOOO--",
"--------------++$$..$$$$OOOOOO--",
"------------XX@@@@@@..OOOO++..--",
"------------XX@@@@@@..OOOO++..--",
"----------XX&&&&##@@oo..++++..--",
"---=------XX&&&&##@@oo..++++..--",
"--------oo@@&&##@@@@oo  ....----",
"--------oo@@&&##@@@@oo  ....----",
"=-------oo&&&&&&##@@oo  --------",
"--------oo&&&&&&##@@oo  --------",
"------oo@@##&&@@@@@@oo  -------=",
"------oo@@##&&@@@@@@oo  --------",
"------oo&&&&&&##@@@@  ----------",
"------oo&&&&&&##@@@@  ------=---",
"-=----oo&&##@@##@@oo  ----------",
"------oo&&##@@##@@oo  ---------=",
"----oo&&&&####@@oo  ------------",
"----oo&&&&####@@oo  ------------",
"----XX##@@##@@ooXX--------------",
"----XX##@@##@@ooXX--------------",
"----XX&&##@@ooXX-------------=--",
"--=-XX&&##@@ooXX----------------",
"----XX@@@@oo  ------------------",
"----XX@@@@oo  ------------------",
"----XXXX    --------=-----------",
"----XXXX    ---------------=--=-"
};
