/* XPM */
static char *be2e8250af384ec1c8c4f2ba1f9f7c01W2J8eEXmmwzuOwHl[] = {
/* columns rows colors chars-per-pixel */
"32 32 103 2 ",
"   c #713970",
".  c #773D70",
"X  c #794A71",
"o  c #834670",
"O  c #854770",
"+  c #874B74",
"@  c #8A4A70",
"#  c #884E70",
"$  c #8E4E71",
"%  c #804978",
"&  c #815B70",
"*  c #815C71",
"=  c #8A5E7B",
"-  c #8E587F",
";  c #935172",
":  c #925274",
">  c #935577",
",  c #955777",
"<  c #915B70",
"1  c #9C5873",
"2  c #9D5A75",
"3  c #9A5B78",
"4  c #A15C74",
"5  c #A55F74",
"6  c #8A6271",
"7  c #896D71",
"8  c #906671",
"9  c #9A6272",
"0  c #9E6672",
"q  c #946871",
"w  c #976C70",
"e  c #986D70",
"r  c #8D7671",
"t  c #9C7071",
"y  c #9B7570",
"u  c #9E7E70",
"i  c #A36077",
"p  c #AB6375",
"a  c #AF6776",
"s  c #A36B75",
"d  c #A2657F",
"f  c #B16977",
"g  c #B06A7B",
"h  c #B66E7A",
"j  c #B26D7C",
"k  c #A47174",
"l  c #B7707C",
"z  c #BB737D",
"x  c #BC747D",
"c  c #A48371",
"v  c #A58F70",
"b  c #A89770",
"n  c #AB9970",
"m  c #ACA070",
"M  c #AEA970",
"N  c #B3B270",
"B  c #B5B971",
"V  c #A4C263",
"C  c #B2C373",
"Z  c #B3C472",
"A  c #B6C772",
"S  c #B9C370",
"D  c #B6C872",
"F  c #B8CA72",
"G  c #BCCB70",
"H  c #BACC71",
"J  c #BCCF71",
"K  c #BED271",
"L  c #C0D470",
"P  c #905E83",
"I  c #9D6786",
"U  c #997980",
"Y  c #A46E85",
"T  c #A86C83",
"R  c #AE7287",
"E  c #A87F80",
"W  c #A0708C",
"Q  c #A27C8A",
"!  c #BD7B84",
"~  c #BD7F8A",
"^  c #B97F8E",
"/  c #C17F87",
"(  c #B6818A",
")  c #C28E92",
"_  c #CF9294",
"`  c #D29898",
"'  c #D09A9D",
"]  c #DCA7A4",
"[  c #DCA8A5",
"{  c #DFB3AA",
"}  c #D8B4AF",
"|  c #E8B5AC",
" . c #E2B9AE",
".. c #E2BCB2",
"X. c #E6BFB3",
"o. c #E0BBB4",
"O. c #DAC8AB",
"+. c #EECABC",
"@. c #ECCCBC",
"#. c #F0CFBF",
"$. c #E3D2B0",
"%. c #EBD5BB",
"&. c #F3D8C5",
/* pixels */
"L L L L L L L L L L L L L L L L L V L L L L L L L L L L L L L L ",
"L L L L L L L L L L L L L L L L L L L L L L L L L L L L L L L L ",
"L L L L L L L L L L L L L L L L L L L L L L L L L L V L L L L L ",
"L L L L L L L L L L L L L L L L L L L L L L L L L L L L L L L V ",
"L L L L L V L L L L L L L L L L L L L L L L L L L L L L L L L L ",
"L L L L L L L L L L L L L L L L L L L L L L L L L L L L L L L L ",
"L L L L L L L L L L L L L L L b < < < < < u L L L L L L L L L L ",
"L L L L L L L L L L L L L L N c , , 3 Y Y E N S L L L L L L L L ",
"L L L L L L L L L L L L L L @ i x x ` &.&.} @ m L L L L L L L L ",
"L L L L L L L L L L L L b e g l x { @.&.&...g k y L L L L L L L ",
"L L L L L L L L L L L L u @ z x x X.+.+.+. .x 2 < L L L L V L L ",
"L L L V L L L L L L L L u @ a h x x x x x x x 2 < L L L L L L L ",
"L L L L L L L L L L G u 0 4 a f h x x x x z h ~ ) u M L L L L L ",
"L L L L L L L L L L S @ 4 a a a a x x x x z a ` ] @ v L L L L L ",
"V L L L L L L L L w @ @ @ @ | | | l a a a ! | | ] @ v L L L L L ",
"L L L L L L L S v s i i i i ^ ' | _ / a a j ^ ^ ( v N L L L L L ",
"L L L L L L L N @ g x x x x @ ^ | | ` a a 5 @ @ < L L L L L L V ",
"L L L L L L w 9 p l x x x x p 4 , , : $ $ t S S S L L L L L L L ",
"L L L L L L < ; a h h h h h a 1 @ T R R + 8 H K L L L L L L L L ",
"L L L L L L < ; a a a a a a a 1 @ [ | | - * C H L L L L V L L L ",
"L V L L L L N n ; ; ; ; ; ; ; O . o.#.#.P * C A D L L L L L L L ",
"L L L L L L L B q # o d > o q 6 & O.$.$.U r C Z F L L L L L L V ",
"L L L L L L L J C & % | I   C C C C C C C C C H L L L L L L L L ",
"L L L L L L F D C & % +.W   C D H H H H H H H K L L L L L L L L ",
"L L L L L L A Z C 7 = %.Q X A H L L L L L L L L L L L L L L L L ",
"L L L L L L L J C C C C C C L L L L L L L L L L L L L L L L L L ",
"L L L L L L L K F F F F F F L L L L L L L L L L L L L L L V L L ",
"L L V L L L L L L L L L L L L L L L L L L L L L L L L L L L L L ",
"L L L L L L L L L L L L L L L L L L L L L L L L L L L L L L L L ",
"L L L L L V L L L L L L L L L L L L L L L L L L L L L L L L L L ",
"L L L L L L L L L L V L L L L L L L L L V L L L L L L L L L L L ",
"L L L L L L L L L L L L L L L L L L L L L L L L L L L V L L V L "
};
