/* XPM */
static char *c861ec8f57a34531cc63dee5a4be9bcacw5Gb76fO3hUBMxT[] = {
/* columns rows colors chars-per-pixel */
"32 32 22 1 ",
"  c #0E071B",
". c #23101D",
"X c #33181F",
"o c #3A2032",
"O c #703118",
"+ c #542920",
"@ c #5D2C28",
"# c #542833",
"$ c #134C4C",
"% c #1E6F50",
"& c #704643",
"* c #8B4335",
"= c #B95027",
"- c #D1690A",
"; c #33984B",
": c #FFA200",
"> c #D29F70",
", c #A4C263",
"< c #C0D470",
"1 c #0069AA",
"2 c #0098DC",
"3 c #F6CA9F",
/* pixels */
"<<<<<<<<<<<<<<<<<,<<<<<<<<<<<<<<",
"<<<<<<<<<<<<<<<<<<<<<<<<<<<<<<<<",
"<<<<<<<<<<############<<<<,<<<<<",
"<<<<<<<<<<############<<<<<<<<<,",
"<<<<<,####------------####<<<<<<",
"<<<<<<####------------####<<<<<<",
"<<<<##----############----##<<<<",
"<<<<##----############----##<<<<",
"<<##--**##==       ===##**--##<<",
"<<##--**##= @&&@&&@ ==##**--##<<",
"<<##--**** @&&&&&&&@ =****--##<<",
"<<##--**** &&&&@&&&& =****--##<<",
"##--##==* @&&&@@@&&&@ **==##--##",
"##--##==* &&&@@ @&&&& **==##--##",
"####**==* &&&@ > @&&& **==**####",
"####**==* @@  >>>  @@ **==**####",
"##==**====  > 333 >  *====**==##",
"##==**==== >> 333 >> *====**==##",
"##==##====* 3333333 **==oooooo##",
"##==##====* $33333$ **==oooooo##",
"..==##====* $%;;%%$ ****oo::....",
"..==##==== 33%;;;%33 ***oo::....",
"..==**==== 33%%;;%33 =**........",
"..==**====* 2221222 ==**........",
"..==##====+ 221 122 O=****##**..",
"..==##===O+ @@ O @@ OO****##**..",
"..==##===OXXOOOOXXOOOO##==##==..",
"..==##====XXOOOOXXOOO=##==##==..",
"......##..############..##......",
"......##..############..##......",
"<<<<<<<<<<,<<<<<<<<<,<<<<<<<<<<<",
"<<<<<<<<<<<<<<<<<<<<<<<<<<<,<<,<"
};
