/* XPM */
static char *_2e542d67d894b53e0f894b9a6130a635bcOE26yYxVH9k99[] = {
/* columns rows colors chars-per-pixel */
"32 32 174 2 ",
"   c #0E071B",
".  c #150A12",
"X  c #1A0C15",
"o  c #12091C",
"O  c #170B1E",
"+  c #1A0C1B",
"@  c #1E0E19",
"#  c #190E1F",
"$  c #1E0F1E",
"%  c #210F1B",
"&  c #26121B",
"*  c #23101D",
"=  c #24101D",
"-  c #33181F",
";  c #1A0F20",
":  c #1A1120",
">  c #231220",
",  c #241422",
"<  c #261625",
"1  c #2E1622",
"2  c #291324",
"3  c #271A26",
"4  c #311720",
"5  c #361A22",
"6  c #331825",
"7  c #3F1E23",
"8  c #3F1E24",
"9  c #3A1C2A",
"0  c #102A34",
"q  c #382023",
"w  c #362129",
"e  c #38262C",
"r  c #3A2032",
"t  c #3F2D30",
"y  c #582C14",
"u  c #582619",
"i  c #5E2A19",
"p  c #642C18",
"a  c #652C1C",
"s  c #703118",
"d  c #79351A",
"f  c #7E371B",
"g  c #462222",
"h  c #402025",
"j  c #462226",
"k  c #4E2320",
"l  c #4A2325",
"z  c #4D2425",
"x  c #42202D",
"c  c #46222F",
"v  c #4C2528",
"b  c #4C242E",
"n  c #44282B",
"m  c #47282E",
"M  c #512523",
"N  c #592720",
"B  c #542920",
"V  c #532826",
"C  c #582A27",
"Z  c #5F2D26",
"A  c #54292A",
"S  c #542D2E",
"D  c #5F2F2B",
"F  c #582E2E",
"G  c #5F302C",
"H  c #4B2430",
"J  c #4B2E34",
"K  c #502630",
"L  c #542833",
"P  c #443236",
"I  c #493132",
"U  c #48383C",
"Y  c #533634",
"T  c #642C21",
"R  c #623025",
"E  c #6E3022",
"W  c #62322F",
"Q  c #693328",
"!  c #6C342E",
"~  c #793522",
"^  c #633430",
"/  c #623836",
"(  c #673936",
")  c #643E3E",
"_  c #6A3E3A",
"`  c #743831",
"'  c #7D3D30",
"]  c #5D413E",
"[  c #6B403D",
"{  c #6D413E",
"}  c #1C2840",
"|  c #1E354E",
" . c #082C51",
".. c #073863",
"X. c #0C3D67",
"o. c #124346",
"O. c #14504D",
"+. c #195E4E",
"@. c #305C56",
"#. c #1E6F50",
"$. c #23794F",
"%. c #207450",
"&. c #054A7B",
"*. c #07507C",
"=. c #2A5775",
"-. c #25587A",
";. c #1A7461",
":. c #494948",
">. c #6E4340",
",. c #6E4442",
"<. c #644941",
"1. c #684C41",
"2. c #704643",
"3. c #705346",
"4. c #767A6B",
"5. c #8E3E24",
"6. c #803F31",
"7. c #A0500E",
"8. c #954020",
"9. c #994221",
"0. c #8B4335",
"q. c #A34726",
"w. c #AF4C26",
"e. c #B95027",
"r. c #D1690A",
"t. c #896650",
"y. c #8C705F",
"u. c #A1795B",
"i. c #28844E",
"p. c #2E8E4C",
"a. c #32964B",
"s. c #30934C",
"d. c #32964C",
"f. c #33984B",
"g. c #2A8E58",
"h. c #2C955A",
"j. c #2A935E",
"k. c #778671",
"l. c #7C9572",
"z. c #FFA200",
"x. c #8A9D78",
"c. c #93937B",
"v. c #B98C66",
"b. c #BC997E",
"n. c #C6956B",
"m. c #C99F7A",
"M. c #D29F70",
"N. c #A4C263",
"B. c #C0D470",
"V. c #2E6282",
"C. c #006FB0",
"Z. c #0075B7",
"A. c #0078BA",
"S. c #799C85",
"D. c #0081C3",
"F. c #0186C4",
"G. c #0090D3",
"H. c #0098DC",
"J. c #BDAB8A",
"K. c #BFAF8B",
"L. c #BCB99D",
"P. c #D4AC89",
"I. c #D9B28F",
"U. c #DAB692",
"Y. c #DABA95",
"T. c #DBBF95",
"R. c #D9BB9B",
"E. c #E4B588",
"W. c #E6BB94",
"Q. c #DDC295",
"!. c #DEC495",
"~. c #F2C599",
"^. c #F6CA9F",
"/. c #D7C4A7",
/* pixels */
"B.B.B.B.B.B.B.B.B.B.B.B.B.B.B.B.B.N.B.B.B.B.B.B.B.B.B.B.B.B.B.B.",
"B.B.B.B.B.B.B.B.B.B.B.B.B.B.B.B.B.B.B.B.B.B.B.B.B.B.B.B.B.B.B.B.",
"B.B.B.B.B.B.B.B.B.B.L c x x x x x x x x H L B.B.B.B.N.B.B.B.B.B.",
"B.B.B.B.B.B.B.B.B.B.L O                 6 L B.B.B.B.B.B.B.B.B.N.",
"B.B.B.B.B.N.L L L x   V ( 2.2.D ( 2.2.D 5 & L L L L B.B.B.B.B.B.",
"B.B.B.B.B.B.L L 9 6 7 / { 2.2._ { 2.2._ S g 2 H L L B.B.B.B.B.B.",
"B.B.B.B.L L r.r.y > W ,.2.2.2.{ >.2.2.2._ F   7.r.r.L L B.B.B.B.",
"B.B.B.B.L L r.r.y < 2.2.2.2.2.D ( 2.2.2.2.)   7.r.r.L L B.B.B.B.",
"B.B.L L r.r.0.1 8 F 2.2.2.[ G D D W 2.2.2.>.V * A 0.r.r.L L B.B.",
"B.B.L L r.r.0.$ m _ 2.2._ ^ D 4 j D 2.2.2.,._ , v 0.r.r.L L B.B.",
"B.B.L L r.r.0.$ J 2.2.2.( C l e n v { ,.2.2.2.< v 0.r.r.L L B.B.",
"B.B.L L r.r.0.$ J 2.2.2.( l   v.3.# D >.2.2.2.< v 0.r.r.L L B.B.",
"L L r.r.L L e.= h G G , # I v.M.n.u.# ; 8 G G > T e.L L r.r.L L ",
"L L r.r.L L e.E 8 5 5 1.t P E.E.E.m.  <.Y 5 5 j 5.e.L L r.r.L L ",
"L L L L 0.0.e.e.8 : t n.3.U ^.^.^.I.  v.t.t   ! e.e.0.0.L L L L ",
"L L L L 0.0.e.e.8 t M.M.3.U ^.^.^.I.  v.M.v.  ! e.e.0.0.L L L L ",
"L L e.e.0.0.e.e.w.~ 3 P.W.I.^.^.^.^.I.~.y.w q.w.e.e.0.0.e.e.L L ",
"L L e.e.0.0.e.e.e.5.  4.J.^.^.^.^.^.^.c.:.$ e.e.e.e.0.0.e.e.L L ",
"L L e.e.L L e.e.e.5.  o.k.Q.!.!.Q.T.T.@.0 $ e.e.r r r r r r L L ",
"L L e.e.L L e.e.e.5.  o.+.$.f.f.i.#.#.O.0 $ e.e.r r r r r r L L ",
"* * e.e.L L e.e.N ] I.Y.l.$.f.f.d.p.#.K.U.b.$ ` r r z.z.* * * * ",
"* * e.e.L L e.e.k U ^.^.x.%.i.a.f.s.#.T.^.I.  ! r r z.z.* * * * ",
"* * e.e.0.0.e.e.N P I./.S.;.;.g.h.j.;.L.R.b.$ ! * * * * * * * * ",
"* * e.e.0.0.e.e.e.5.  F.H.H.H.C.D.H.H.H.*.* 0.0.* * * * * * * * ",
"* * e.e.L L e.e.9.a   F.H.G.Z. .&.A.H.H.*.$ R 6.0.0.L L 0.0.* * ",
"* * e.e.L L e.9.f u   =.V.-...q } X.V.V.| + B Q ' 0.L L 0.0.* * ",
"* * e.e.L L e.d s i o z Z M + p * $ Z Z 7 & - - 8.e.L L e.e.* * ",
"* * e.e.L L e.d s s - - s s s s - - s s s s - - 8.e.L L e.e.* * ",
"* * * * * * L b X . - - - - - - - - - - - - . @ K L * * * * * * ",
"* * * * * * L L @ X 8 8 8 8 8 8 8 8 8 8 8 8 X % L L * * * * * * ",
"B.B.B.B.B.B.B.B.B.B.N.B.B.B.B.B.B.B.B.B.N.B.B.B.B.B.B.B.B.B.B.B.",
"B.B.B.B.B.B.B.B.B.B.B.B.B.B.B.B.B.B.B.B.B.B.B.B.B.B.B.N.B.B.N.B."
};
