/* XPM */
static char *_cdbfb78f102408b8587c08793676939ggupSxMnTPS4OuQ6[] = {
/* columns rows colors chars-per-pixel */
"32 32 162 2 ",
"   c #0E071B",
".  c #180B1C",
"X  c #180C1D",
"o  c #22101E",
"O  c #1A0E20",
"+  c #0F1021",
"@  c #0D132D",
"#  c #1A1120",
"$  c #1D1826",
"%  c #0C1933",
"&  c #291723",
"*  c #271A25",
"=  c #2B1F2B",
"-  c #351921",
";  c #331A24",
":  c #321F24",
">  c #3A1B22",
",  c #3B1D24",
"<  c #113A3F",
"1  c #242025",
"2  c #33232B",
"3  c #3A2028",
"4  c #3D232C",
"5  c #3F262F",
"6  c #372928",
"7  c #3F2D30",
"8  c #3B3A30",
"9  c #492224",
"0  c #4F2627",
"q  c #422E2A",
"w  c #532726",
"e  c #532827",
"r  c #512929",
"t  c #572D2C",
"y  c #5E2D29",
"u  c #5F302C",
"i  c #4E2E31",
"p  c #443236",
"a  c #463639",
"s  c #48383C",
"d  c #533633",
"f  c #5D3635",
"g  c #61332F",
"h  c #633330",
"j  c #633430",
"k  c #643531",
"l  c #663935",
"z  c #613B3B",
"x  c #633E3E",
"c  c #643E3E",
"v  c #683C39",
"b  c #6B3F3C",
"n  c #414430",
"m  c #544D37",
"M  c #57403B",
"N  c #4E5435",
"B  c #535636",
"V  c #54533E",
"C  c #54593A",
"Z  c #5B583C",
"A  c #6B403C",
"S  c #6D433F",
"D  c #675F39",
"F  c #6C613A",
"G  c #626A3C",
"H  c #68723F",
"J  c #293144",
"K  c #073862",
"L  c #134C4C",
"P  c #17594D",
"I  c #1B664F",
"U  c #1E6F50",
"Y  c #22764E",
"T  c #23794E",
"R  c #377659",
"E  c #06416E",
"W  c #6F4542",
"Q  c #644940",
"!  c #694C41",
"~  c #704643",
"^  c #705345",
"/  c #7D5D4A",
"(  c #5C6040",
")  c #616240",
"_  c #676D45",
"`  c #686A45",
"'  c #6A6C48",
"]  c #6E7A42",
"[  c #666A5E",
"{  c #786A54",
"}  c #5A7565",
"|  c #815E4B",
" . c #896650",
".. c #82685D",
"X. c #A1795B",
"o. c #28834D",
"O. c #2A864D",
"+. c #2D8E4C",
"@. c #2F904B",
"#. c #32964B",
"$. c #30934C",
"%. c #33984B",
"&. c #758144",
"*. c #798647",
"=. c #7D864F",
"-. c #7E8B49",
";. c #548563",
":. c #6C896D",
">. c #88964F",
",. c #899652",
"<. c #889456",
"1. c #93A15B",
"2. c #94A15B",
"3. c #9AAA5A",
"4. c #9EAF5D",
"5. c #9CB85F",
"6. c #A4B45F",
"7. c #9F816D",
"8. c #848B75",
"9. c #9F8570",
"0. c #AD8260",
"q. c #B98C66",
"w. c #A0967C",
"e. c #A09B7F",
"r. c #B79378",
"t. c #A8BA62",
"y. c #A9BA65",
"u. c #ADBF65",
"i. c #D29F70",
"p. c #A4C263",
"a. c #B5C76B",
"s. c #B6CA6B",
"d. c #BCCF6E",
"f. c #C0D470",
"g. c #035C93",
"h. c #0069AA",
"j. c #0674A4",
"k. c #0474AB",
"l. c #006FB0",
"z. c #227AA3",
"x. c #0683B4",
"c. c #0080C3",
"v. c #0083C6",
"b. c #008CCF",
"n. c #0493CB",
"m. c #0698CA",
"M. c #1199CF",
"N. c #0092D5",
"B. c #0098DC",
"V. c #1F9ED5",
"C. c #A29F80",
"Z. c #AFA285",
"A. c #A5A881",
"S. c #D2AA85",
"D. c #D9B18F",
"F. c #DABA95",
"G. c #DBBF95",
"H. c #E6BB94",
"J. c #EDBF93",
"K. c #DCC195",
"L. c #F2C599",
"P. c #F6CA9F",
/* pixels */
"f.f.f.f.f.f.f.f.f.f.f.f.f.f.f.f.f.p.f.f.f.f.f.f.f.f.f.f.f.f.f.f.",
"f.f.f.f.f.f.f.f.f.f.f.f.f.f.f.f.f.f.f.f.f.f.f.f.f.f.f.f.f.f.f.f.",
"f.f.f.f.f.f.f.f.f.f.y.                  8 f.f.f.f.f.p.f.f.f.f.f.",
"f.f.f.f.f.f.f.f.f.1.) - 4 5 5 - 3 5 5 , q _ a.f.f.f.f.f.f.f.f.p.",
"f.f.f.f.f.p.f.f.y.) o u A ~ ~ g l ~ ~ l 0 . 1.a.f.f.f.f.f.f.f.f.",
"f.f.f.f.f.f.f.f.1 - y ~ ~ ~ ~ ~ ~ ~ ~ ~ b y . _ f.f.f.f.f.f.f.f.",
"f.f.f.f.f.f.f.f.1 4 S ~ ~ ~ ~ k v ~ ~ ~ W A O _ f.f.f.f.f.f.f.f.",
"f.f.f.f.f.f.y.=.: i ~ ~ ~ S v y h v ~ ~ ~ ~ ; m =.f.f.f.f.f.f.f.",
"f.f.f.f.f.f.=.  e l ~ ~ ~ b y y y y ~ ~ ~ ~ y -   f.f.f.f.f.f.f.",
"f.f.f.f.f.f.=.  z W ~ ~ j y y o > y ~ ~ ~ ~ S 5   f.f.f.f.f.f.f.",
"f.f.f.f.f.f.=.  c ~ ~ ~ g w - ! d , l S ~ ~ ~ 5   f.f.f.f.p.f.f.",
"f.f.f.p.f.f.=.  z S S x t r * q./ : w f A S S 5   f.f.f.f.f.f.f.",
"f.f.f.f.f.f.=.  e y w     7 i.i.i.q.    o y y -   f.f.f.f.f.f.f.",
"f.f.f.f.f.f.y.2.6 o & X.2 a J.J.J.S.  Q | o o Z 2.f.f.f.f.f.f.f.",
"p.f.f.f.f.f.f.f.1 * M i.7 s P.P.P.D.   .0.7 # _ f.f.f.f.f.f.f.f.",
"f.f.f.f.f.f.f.f.1 ^ i.i.7 s P.P.P.D.   .i.i.* _ f.f.f.f.f.f.f.f.",
"f.f.f.f.f.f.f.f.y.` p L.H.D.P.P.P.P.D.H.r.* 2.a.f.f.f.f.f.f.f.p.",
"f.f.f.f.f.f.f.f.f._ $ 8.F.P.P.P.P.P.P.Z.[   y.f.f.f.f.f.f.f.f.f.",
"f.f.f.f.f.f.f.f.f._ + L C.K.K.K.K.G.G.} <   y.f.f.f.f.f.f.f.f.f.",
"f.f.f.f.f.f.f.f.f._ + L I T %.%.o.U U P <   y.f.f.f.f.f.p.f.f.f.",
"f.p.f.f.f.f.f.f.( { 9.e.R T %.%.@.O.U :.w.7.V <.f.f.f.f.f.f.f.f.",
"f.f.f.f.f.f.f.f.1 ..P.P.;.Y +.#.%.$.U A.P.P.= _ f.f.f.f.f.f.f.p.",
"f.f.f.f.f.f.f.f.1 ..P.P.;.U U $.%.$.U A.P.P.= _ f.f.f.f.f.f.f.f.",
"f.f.f.f.f.f.f.f.y.' J V.M.n.n.j.x.m.n.M.z.= 2.a.f.f.f.f.f.f.f.f.",
"f.f.f.f.f.f.f.f.4.C % B.B.N.c.E g.v.B.B.k.  ,.u.f.f.f.f.f.f.f.f.",
"f.f.f.f.f.f.f.f.-.n % B.B.b.h.@ K l.B.B.k.  H 3.f.f.f.f.f.f.f.f.",
"f.f.f.f.f.f.6.&.&.n X y y 9   H n X y y 9   H &.&.f.f.f.f.p.f.f.",
"f.f.p.f.f.f.6.&.&.G B F F D N ] G B F F D N ] &.&.f.f.f.f.f.f.f.",
"f.f.f.f.f.f.t.>.*.&.&.&.&.&.&.&.&.&.&.&.&.&.&.-.>.f.f.f.f.f.f.f.",
"f.f.f.f.f.p.f.f.-.&.&.&.&.&.&.&.&.&.&.&.&.&.&.3.f.f.f.f.f.f.f.f.",
"f.f.f.f.f.f.f.f.s.s.5.s.s.s.s.s.s.s.s.s.5.s.s.d.f.f.f.f.f.f.f.f.",
"f.f.f.f.f.f.f.f.f.f.f.f.f.f.f.f.f.f.f.f.f.f.f.f.f.f.f.p.f.f.p.f."
};
