/* XPM */
static char *cbb4f96af67148d0f579b1d5150b6fe88CcJO3miGFWEGyTX[] = {
/* columns rows colors chars-per-pixel */
"83 32 163 2 ",
"   c None",
".  c #786300",
"X  c #846D00",
"o  c #957E00",
"O  c #9D8300",
"+  c #A08500",
"@  c #A48A00",
"#  c #AD9100",
"$  c #B49600",
"%  c #BB9C00",
"&  c #C3A300",
"*  c #C9A700",
"=  c #CCAA00",
"-  c #D2AF00",
";  c #D5B200",
":  c #DAB600",
">  c #DEB900",
",  c #FFA301",
"<  c #FFAB01",
"1  c #FFA60B",
"2  c #FFA80E",
"3  c #E2BB00",
"4  c #FFB401",
"5  c #F7B900",
"6  c #FFBC00",
"7  c #FFBD0A",
"8  c #E4A018",
"9  c #FFAA13",
"0  c #FFAC1C",
"q  c #FFB015",
"w  c #FFB019",
"e  c #FFBB18",
"r  c #D7BA27",
"t  c #FFAF23",
"y  c #FFB027",
"u  c #FFB22B",
"i  c #FFB433",
"p  c #FFB73A",
"a  c #FFB93C",
"s  c #E5C000",
"d  c #EBC400",
"f  c #EFC800",
"g  c #FFC400",
"h  c #F4CB00",
"j  c #FFCC00",
"k  c #FFD400",
"l  c #FFD608",
"z  c #F9C719",
"x  c #FFD712",
"c  c #FBD518",
"v  c #FFC027",
"b  c #FFC82B",
"n  c #FFD523",
"m  c #FFDB27",
"M  c #FFD328",
"N  c #FFDC29",
"B  c #E6C53A",
"V  c #FECF3C",
"C  c #FFDE36",
"Z  c #FFD13B",
"A  c #FFBB44",
"S  c #FFBE4B",
"D  c #F1B851",
"F  c #FFBF50",
"G  c #E3CA4D",
"H  c #FFCD47",
"J  c #FFC54E",
"K  c #FFCD4C",
"L  c #FFC256",
"P  c #FFC45D",
"I  c #FFD950",
"U  c #FFE14B",
"Y  c #FFE55D",
"T  c #FFC664",
"R  c #FCC668",
"E  c #FFC96C",
"W  c #FFCC74",
"Q  c #FFCF7B",
"!  c #FFD176",
"~  c #FFD07F",
"^  c #F8DB7A",
"/  c #FFE563",
"(  c #FFE26F",
")  c #FFE579",
"_  c #FFEA7C",
"`  c #FFD284",
"'  c #FFD58D",
"]  c #FFD791",
"[  c #FFD995",
"{  c #FFDB9C",
"}  c #FFEB84",
"|  c #FFED8F",
" . c #FFEB92",
".. c #EDD5AE",
"X. c #FFDEA4",
"o. c #FFDFA9",
"O. c #EDE0A5",
"+. c #F7E6A2",
"@. c #FFE1AD",
"#. c #FFEDAF",
"$. c #FFF1AF",
"%. c #FFE4B6",
"&. c #FFE7BD",
"*. c #F4ECBE",
"=. c #FFEBBC",
"-. c #FFF3BD",
";. c #DCDCDB",
":. c #F5E3C4",
">. c #FFEAC3",
",. c #FFEDCD",
"<. c #FFF6CD",
"1. c #FFEED2",
"2. c #FFF0D4",
"3. c #FFF8D2",
"4. c #F7F2DB",
"5. c #FFF1DA",
"6. c #FFF8D9",
"7. c #E6E6E2",
"8. c #E8E7E4",
"9. c #EEEEED",
"0. c #FEF5E3",
"q. c #FFFAE3",
"w. c #F2F1EE",
"e. c #FFF7E8",
"r. c #FFF9EA",
"t. c #F5F4F1",
"y. c #FAF7F6",
"u. c #F9F7F5",
"i. c #F8F6F3",
"p. c #FFF9F0",
"a. c #FFFAF1",
"s. c #FFFBF2",
"d. c #FFFAF2",
"f. c #FFFCF1",
"g. c #F8F8F7",
"h. c #FAFAF7",
"j. c #FFFBF5",
"k. c #FCF9F6",
"l. c #FFFBF6",
"z. c #FFFCF6",
"x. c #FFFEF7",
"c. c #FFFEF6",
"v. c #FFFCF6",
"b. c #F9F9F8",
"n. c #FBFAF9",
"m. c #FCFAF9",
"M. c #FFFDF8",
"N. c #FFFCF8",
"B. c #FDFCFB",
"V. c #FFFDFA",
"C. c #FEFCFB",
"Z. c #FFFEFB",
"A. c #FDFCFC",
"S. c #FDFDFC",
"D. c #FDFDFD",
"F. c #FEFDFC",
"G. c #FFFEFC",
"H. c #FFFEFD",
"J. c #FEFEFE",
"K. c #FFFEFE",
"L. c #FFFFFE",
"P. c white",
"I. c #FFFFFF",
/* pixels */
"                                                                                                                                                                      ",
"                                                                                                                                                                      ",
"                                                                                                                                                                      ",
"                                                                                                                                                                      ",
"                                                                                                                                                                      ",
"                u.g.m.u...                                                                                                          n.m.N.i.                          ",
"            g.P.P.P.P.P.@.< 3                                                         t.w.                                      P.P.P.P.P.P.P 5                       ",
"            P.P.P.P.P.P.@., k >                                 P.P.P.0.        u.P.P.P.P.P.n.      t.P.P.P.e.8               P.P.P.P.P.P.P.T 4 k                     ",
"          P.P.P.P.5.%.&.] , k k r 9.P.P.N.u.                  w.P.P.P.&., g   7.P.P.P.P.P.P.P.0.z   w.P.P.P.P.S j O.P.P.P.` :.P.P.P.P.1.{ { A 4 k k                   ",
"          P.P.P.,.1 9 9 , , k m q.P.P.P.P.P.P.+.              g.P.P.P.' , j c P.P.P.P.P.P.P.P.P.] g 4.P.P.P.P.@.6 | P.P.P.T P.P.P.P.W , , , 9 e k k                   ",
"          k.P.P.P.P.P.P.<.n l 3.P.P.P.P.P.P.P.P.H :           n.P.P.P.P , k / P.P.P.' 9 L P.P.P.1.4 q.P.P.P.P.s.< $.P.P.P.Q P.P.P.&.u o.2.c.P.%.g k @                 ",
"            P.P.P.P.P.P.P.=.I P.P.P.0.[ 1.P.P.P.X.6 ;         P.P.P.P.t 4 k  .P.P.P.0 , 6 =.P.P.r.y N.P.P.P.P.P.P 2.P.P.s.Q P.P.P.[ a P.P.P.P.5., k #                 ",
"            ^ >.2.1.P.P.P.N.>.P.P.P.y , q r.P.P.0.< k -       P.P.P.k., 6 k | P.P.P.i 6 k -.P.P.0.a P.P.P.N.P.P.>.k.P.P.,.T P.P.P.&.y 2.>.P.P.N., j k                 ",
"            G 6 , 1 &.P.P.P.5.P.P.c., 4 k <.P.P.0., j k       P.P.P.,., g k U P.P.P.,.Z _ P.P.P.&.S P.P.P.X.s.P.P.P.P.P.%.A P.P.P.P.! v E P.P.P.0 j k >               ",
"            P.N.r.N.P.P.P.0.X.P.P.P.i g N c.P.P.&., j k ;     P.P.P.0.' ( U x 4.P.P.P.P.P.P.P.P.L W P.P.P.E &.P.P.P.P.P.` 2 r.P.P.P.P.P.P.P.P.P.i g k f               ",
"            P.P.P.P.P.P.P.` A P.P.P.r.#.f.P.P.P.T , j k f     P.P.P.P.P.P.1.4 B s.P.P.P.P.P.P.[ , X.P.P.P.A W P.P.P.P.P.F < / P.P.P.P.P.P.P.P.s.t 6 k h               ",
"            P.P.P.P.P.P.[ , < -.P.P.P.P.P.P.P.2.1 < k k h   ;.P.P.P.P.P.P.@., j M =.P.P.P.e.W , , =.P.P.P.0 a P.P.P.P.P.i < k ) N.P.P.P.P.P.1.i , 6 k k               ",
"            D ~ @.@.] i , , g x >.P.P.P.P.P.1.0 , g k k d   8.P.P.P.P.P.P.E , k k j w i y 1 , , g 3.P.P.c., 7 q.P.P.P.P.9 4 k k b ' &.%.{ S , , 4 k k k               ",
"              g < < , < 4 j k k k J @.>.@.T 1 , 4 C Y } *.w.R i i a A A S 9 < k k h h g 6 6 g k l K W { ] , g  .5.5.0.,., g k k d g < , , , 4 g k k k k               ",
"              3 k k k k k k k k k 3 6 < , , < g k r.P.P.P.P.W < 6 6 6 6 4 4 g k k :   h k k k k k k 4 < < , j j < , , , , j k k . $ k k j k k k k k k >               ",
"                : k k k k k k h X   d k k k k k k 6.P.P.P.k.` 4 k k k k k k k k k &     ; k k k k : - k k k k k k j j g g k k k       k k k k k k k &                 ",
"                    % - : = O         3 k k k k k V p 0 1 , , < k k k k k k k k k o                   : k k k k f 3 k k k k k k         & > s ; #                     ",
"                                          = 3 > &   5 4 6 g g j k k $                                     $ * ; @   : h h h h *                                       ",
"                                                    * k k k k k k k %                                                                                                 ",
"                                                      ; k k k k k h +                                                                                                 ",
"                                                                                                                                                                      ",
"                                                                                                                                                                      ",
"                                                                                                                                                                      ",
"                                                                                                                                                                      ",
"                                                                                                                                                                      ",
"                                                                                                                                                                      ",
"                                                                                                                                                                      "
};
