/* XPM */
static char *_b13e0a6ab2d419a82f4c00241ae67f2lhptpXQprGXU6QvJ[] = {
/* columns rows colors chars-per-pixel */
"32 32 13 1 ",
"  c #5F7A79",
". c #90625D",
"X c #AA7959",
"o c #6E967C",
"O c #B68962",
"+ c #9AB367",
"@ c #C49A6C",
"# c #A4C263",
"$ c #B2C373",
"% c #C0D470",
"& c #97BB8E",
"* c #AED499",
"= c #C2E09A",
/* pixels */
"%%%%%%%%%%%%%%%%%#%%%%%%%%%%%%%%",
"%%%%%%%%%%%%         %%%%%%%%%%%",
"%%%%%%%%%%  &******&& %%%%#%%%%%",
"%%%%%%%%  &***===*==*&  %%%%%%%#",
"%%%%%#% &*****===*==**&& %%%%%%%",
"%%%%%% &*===*===********& %%%%%%",
"%%%%% &&*======***===***&& %%%%%",
"%%%%% *****==*****======&& %%%%%",
"%%%% &***************===**& %%%%",
"%%%% &********************& %%%%",
"%%%% &&&***&&******&&&**&&& %#%%",
"%%%# &&&***&&******&&&**&& %%%%%",
"%%%% &&&&&&&&&&&**&***&&&& %%%%%",
"%%%%% &&&***&&&&&&&&&&&&&&& %%%%",
"#%%%% &&&&&&&&&&&&&&&&&&&&& %%%%",
"%%%% o&&&&&&&&&&&&&&&&&&&&o %%%%",
"%%%% ooo&oo&&ooo&&&&&oooooo %%%#",
"%%%% ooo&oo&&ooo&&&&&oooooo %%%%",
"%%%% oooooooo&&&&&ooo&&&oo %%%%%",
"%%%%% oo&&&ooooooooooooooo %#%%%",
"%#%%% oooooooooooooooooooo %%%%%",
"%%%%%% oooooooooooooooooo %%%%%#",
"%%%%%%%  ooooooooooooo   %%%%%%%",
"%%%%%%%%%             %%%%%%%%%%",
"%%%%%%%%%%%%.XXXXXX.%%%%%%%%%%%%",
"%%%%%%%%%%%%.OXXXXO.%%%%%%%%%%%%",
"%%%%%%%%%%%$.OOOOOO.$%%%%%%%%#%%",
"%%#%%%%%%$$$.O@O@@@.$$$%%%%%%%%%",
"%%%%%%%%$$$.@@@@@@@@.$$$%%%%%%%%",
"%%%%%#%%$$$$@@@@@@@@$$$$%%%%%%%%",
"%%%%%%%%%$+$$$$@@$$$+$$%%%%%%%%%",
"%%%%%%%%%%%$$$$$$$$$$%%%%%%#%%#%"
};
