/* XPM */
static char *daca5184454f4fb9fd81212c97cbde8dMMPW5zoPKITx2ypB[] = {
/* columns rows colors chars-per-pixel */
"32 32 76 1 ",
"  c black",
". c #070707",
"X c gray3",
"o c gray6",
"O c #181B0E",
"+ c #161616",
"@ c #1E1E1E",
"# c #202215",
"$ c #27291D",
"% c #2B2F1C",
"& c #30351C",
"* c gray15",
"= c #2D2D2D",
"- c #373D23",
"; c #32332D",
": c #36382C",
"> c #3B3E2C",
", c gray19",
"< c #353535",
"1 c #3C3C3C",
"2 c #3C4223",
"3 c #3F442B",
"4 c #484F2A",
"5 c #48502A",
"6 c #424633",
"7 c #464C32",
"8 c #41423B",
"9 c #45473B",
"0 c #45483C",
"q c #494D3B",
"w c #4E533A",
"e c #525839",
"r c #575E39",
"t c #5D6639",
"y c #606A38",
"u c #6C773F",
"i c #434343",
"p c #444444",
"a c #4C4F43",
"s c #4C4D46",
"d c #4B4B4B",
"f c gray30",
"g c #4F514B",
"h c #515542",
"j c #51514B",
"k c #54574B",
"l c #535353",
"z c #565656",
"x c #5B5B5B",
"c c #5F605A",
"v c #636C40",
"b c #737E47",
"n c #747F47",
"m c #626262",
"M c #6A6A6A",
"N c #717171",
"B c #767676",
"V c #797979",
"C c #788446",
"Z c #7F8C4D",
"A c #818D4E",
"S c #84924D",
"D c #879550",
"F c #909F54",
"G c #90A054",
"H c #97A65B",
"J c #98A75C",
"K c #9CAC5B",
"L c #A8B962",
"P c #A4C263",
"I c #B4C769",
"U c #C0D470",
"Y c #868686",
"T c #959595",
"R c #9B9B9B",
"E c #9D9D9D",
/* pixels */
"UUUUUUUUUUUUUUUUUPUUUUUUUUUUUUUU",
"UUUUUUUUUUUUUUUUUUUUUUUUUUUUUUUU",
"UUUUUUUUUUUUUUUUUUUUUUUUUUPUUUUU",
"UUUUUUL2SUUUUUUUUUUUUUUUUUUUUUUP",
"UUUIUPS 8SUUUUUUUUUUUUUUUUUUUUUU",
"UUZwSU$=drUUUUUUUUUUUUUUUUUUUUUU",
"UU-=cn:V=<IUUUUUUUUUUUUUUUUUUUUU",
"UUb1p1@V=V5UUUUUUUUUUUUUUUUUUUUU",
"UULq+fl=<lgKUUUUUUUUUUUUUUUUUUUU",
"UUUC<VVV<*mrUUUUUUUUUUUUUUUUUUUU",
"UUUtmVVVVM=oKUUUUUUUUUUUUUUUUPUU",
"UUL=VVVVVVVx9LUUUUUUUUUUUUUUUUUU",
"UUL=BxzNVVVV1;KUUUUUUUUUUUUUUUUU",
"UUL=NfTRVVVV=N0&&&&&&UUUUUUUUUUU",
"PUA=mYEVVVV@VN1NVVVVV=.+=eIUUUUU",
"UDsNVVVVVVVmViMVVVVVVVx1VMvUUUUU",
"U XzVVVxNVVVVVVVVVVVVVV1xVaKUUUP",
"UCoVVN,pVVVVVVVVVVVVVVVN=VxCUUUU",
"UUnzdwjVVVVVVVVVVVVVVVVV=VxCUUUU",
"UUUAJISaNVVV<VVVVVV=VVVV=VxCPUUU",
"UPUUUUUK;xV1xpVVVVd@VVVV=VxCUUUU",
"UUUUUUUUKOlmV=xxx%kxdVVV=MxyIUUP",
"UUUUUUUUUFdVV**uCI4N1dVV@1x LUUU",
"UUUUUUUUUU=VV=1LUUU@V@NV1*N=LUUU",
"UUUUUUUUUU=Vxz1LUUU@V&6VM5h;LUUU",
"UUUUUUUUUU=Vdx1LUUS@V5bxMyLKUUUU",
"UUUUUUUUH3MVdx8LUK8mV#>MMyUUUPUU",
"UUPUUUUU:VVVd*yUULq11zVVMyUUUUUU",
"UUUUUUUU7xxx8GIUUUIL2xxxdCUUUUUU",
"UUUUUPUUICCCFUUUUUUUFCCCSUUUUUUU",
"UUUUUUUUUUPUUUUUUUUUPUUUUUUUUUUU",
"UUUUUUUUUUUUUUUUUUUUUUUUUUUPUUPU"
};
