/* XPM */
static char *_252267c3cfd494ae458fa1454f711af4DxCeqkMAg9AuOeI[] = {
/* columns rows colors chars-per-pixel */
"32 32 63 1 ",
"  c black",
". c gray6",
"X c #181A0E",
"o c gray9",
"O c #1B1D16",
"+ c #1E1E1E",
"@ c #242815",
"# c #272A1D",
"$ c #30351C",
"% c gray15",
"& c #2A2B25",
"* c gray18",
"= c #2F3124",
"- c #36382C",
"; c #3B3F2C",
": c #353535",
"> c #3A3B35",
", c gray24",
"< c #3C4223",
"1 c #444A2B",
"2 c #48502A",
"3 c #41423C",
"4 c #46483B",
"5 c #4A4E3B",
"6 c #4E533A",
"7 c #545C31",
"8 c #52593A",
"9 c #575F39",
"0 c #606A38",
"q c #6C773F",
"w c #6C783F",
"e c #444444",
"r c #4D4F43",
"t c #4C4C4C",
"y c #50514B",
"u c #55574B",
"i c #535353",
"p c #565656",
"a c #585953",
"s c #5B5B5B",
"d c #5F6741",
"f c #636C40",
"g c #6F7947",
"h c #626262",
"j c gray40",
"k c #6A6A6A",
"l c #727272",
"z c #767676",
"x c #797979",
"c c #788446",
"v c #7B874E",
"b c #84924D",
"n c #8C9A54",
"m c #909F54",
"M c #9CAD5B",
"N c #A8BA62",
"B c #A4C263",
"V c #B4C769",
"C c #C0D470",
"Z c #818181",
"A c #868686",
"S c gray54",
"D c gray61",
/* pixels */
"CCCCCCCCCCCCCCCCCBCCCCCCCCCCCCCC",
"CCCCCCCCCCCCCCCCCCCCCCCCCCCCCCCC",
"CCCCCCCCCCCCCCCCCCCCCCCCCCBCCCCC",
"CCCCCCCCCCCCCCCCCCCCCCCCCCCCCCCB",
"CCCCCBCCCCCCCCCCCCCCCCNCCCCCCCCC",
"CCCCCCCCCCCCCCCCCCCCCbXNCCCCCCCC",
"CCCCCCCCCCCCCCCCCCCCC,.7CCbCCCCC",
"CCCCCCCCCCCCCCCCCCCC7,s=N;3qCCCC",
"CCCCCCCCCCCCCCCCCCCM4,k&5i:wCCCC",
"CCCCCCCCCCCCCCCCCCCfh,,,,:-CCCCC",
"CCCCCCCCCCCCCCCCCCV>kohll%nCCBCC",
"CCCBCCCCCCCCCCCCCCw*ekxxxicCCCCC",
"CCCCCCCCCCCCCCCCCb,lxxxxxx-CCCCC",
"CCCCCCCCCCCCCCCCv*sxxxxisz-CCCCC",
"BCCCCCCCCCCCNNNbax*xxxADpj-CCCCC",
"CCCCCCCCCCV2ttt*sxtkxxxSZkybCCCC",
"CCCCCCCCMg.ixxxtsxxxxxxxxxi%mCCB",
"CCCCCCVbut*xxxxkixxxxxtsxxs wCCC",
"CCCCCCdixssxxxxxxxxxxxltixk<CCCC",
"CCCw+*lxxssxxsxxxxxxxxkdb6dCBCCC",
"CBC$txxxkosxx*x:xxxxxsdVCVVCCCCC",
"CCCV6ixto sxx*x*xxslt<VCCCCCCCCB",
"CCCCC00qCXsxx&@xxx,l*CCCCCCCCCCC",
"CCCCCCCCq+lxl=2xxk*x*CCCCCCCCCCC",
"CCCCCCCNr*xlOc1xx**x*CCCCCCCCCCC",
"CCCCCCC9x*x,bNtxk8*x*CCCCCCCCCCC",
"CCCCCCmyx*xl-btxk>*xtdVCCCCCCBCC",
"CCBCCCVd-+xxk;dlxxtsk3NCCCCCCCCC",
"CCCCCCCCCf,,,#Co,,%70mCCCCCCCCCC",
"CCCCCBCCCCCCCCCCCCCCCCCCCCCCCCCC",
"CCCCCCCCCCBCCCCCCCCCBCCCCCCCCCCC",
"CCCCCCCCCCCCCCCCCCCCCCCCCCCBCCBC"
};
