/* XPM */
static char *_59686386f9f479fc57500898f67a7e1lmK0Xwut6i6KkuEb[] = {
/* columns rows colors chars-per-pixel */
"32 32 70 1 ",
"  c black",
". c gray3",
"X c gray6",
"o c #181A0E",
"O c #161616",
"+ c #1E1E1E",
"@ c #202215",
"# c #27291D",
"$ c #2C2F1D",
"% c #30351C",
"& c gray15",
"* c gray18",
"= c #383D23",
"- c #32332D",
"; c #36382C",
": c #3B3F2C",
"> c #313131",
", c #353535",
"< c gray24",
"1 c #3C4223",
"2 c #3F442B",
"3 c #48502A",
"4 c #424633",
"5 c #474C32",
"6 c #41433C",
"7 c #46483C",
"8 c #4A4D3B",
"9 c #4E533A",
"0 c #4E543B",
"q c #535839",
"w c #575E39",
"e c #5D663A",
"r c #606A38",
"t c #66793E",
"y c #6C783F",
"u c #444444",
"i c #4D4F43",
"p c #4C4E47",
"a c #4C4C4C",
"s c #4D5043",
"d c #515542",
"f c #50514B",
"g c #54574A",
"h c #535353",
"j c gray33",
"k c #5B5B5B",
"l c #5F615A",
"z c #636C40",
"x c #747F47",
"c c #626262",
"v c #6A6A6A",
"b c #727272",
"n c #767676",
"m c #797979",
"M c #788446",
"N c #808C4E",
"B c #84924D",
"V c #879550",
"C c #909F54",
"Z c #90AA57",
"A c #98A75C",
"S c #9CAC5B",
"D c #9DAD5C",
"F c #A8BA62",
"G c #A4C263",
"H c #B4C769",
"J c #C0D470",
"K c gray53",
"L c #959595",
"P c gray61",
/* pixels */
"JJJJJJJJJJJJJJJJJGJJJJJJJJJJJJJJ",
"JJJJJJJJJJJJJJJJJJJJJJJJJJJJJJJJ",
"JJJJJJJJJJJJJJJJJJJJJJJJJJGJJJJJ",
"JJJJJJJF1BJJJJJJJJJJJJJJJJJJJJJG",
"JJJJHGJB 6BJJJJJJJJJJJJJJJJJJJJJ",
"JJJN9BJ#*awJJJJJJJJJJJJJJJJJJJJJ",
"JJJ=*lx;m*,HJJJJJJJJJJJJJJJJJJJJ",
"JJJx<u<+m*m3JJJJJJJJJJJJJJJJJJJJ",
"JJJF8Oah*,jfSJJJJJJJJJJJJJJJJJJJ",
"JJJJM,mmm,&cwJJJJJJJJJJJJJJJJJJJ",
"JJJJecmmmmv*XSJJJJJJJJJJJJJJJGJJ",
"JJJZ*mmmmmmmk7FJJJJJJJJJJJJJJJJJ",
"JJJF*nkjbmmmm<-DJJJJJJJJJJJJJJJJ",
"JJJF*baLPmmmm*b7%%%%%%JJJJJJJJJJ",
"GJJN*cKPmmmm+mb<bmmmmm*.O*qHJJJJ",
"JJVpbmmmmmmmcmuvmmmmmmmk<mvzJJJJ",
"JJ .hmmmkbmmmmmmmmmmmmmm<kmiSJJG",
"JJMXmmb>ummmmmmmmmmmmmmmb*mkMJJJ",
"JJJxja0fmmmmmmmmmmmmmmmmm*mkMJJJ",
"JJJJNAHBsbmmm,mmmmmm*mmmm*mktJJJ",
"JGJJJJJJS-km<kummmma+mmmm*mkMJJJ",
"JJJJJJJJJSohcm*kkk$gkammm*vkrHJG",
"JJJJJJJJJJCamm&&yMH3b<amm+<k FJJ",
"JJJJJJJJJJJ*mm*<FJJJ+m+bm<&b*FJJ",
"JJJJJJJJJJJ*mkh<FJJJ+m%4mv3d-FJJ",
"JJJJJJJJJJJ*mak<FJJB+m3xkvrFSJJJ",
"JJJJJJJJJA2vmak6FJS6cm@:vvrJJGJJ",
"JJGJJJJJJ;mmma&rJJF8<<hmmvrJJJJJ",
"JJJJJJJJJ5kkk6CHJJJHF1kkkaMJJJJJ",
"JJJJJGJJJHMMMCJJJJJJJCMMMBJJJJJJ",
"JJJJJJJJJJGJJJJJJJJJGJJJJJJJJJJJ",
"JJJJJJJJJJJJJJJJJJJJJJJJJJJGJJGJ"
};
