/* XPM */
static char *e48e30245cf944e3c4a42e204042b801pcBt2DqaNatm2Srj[] = {
/* columns rows colors chars-per-pixel */
"32 32 39 1 ",
"  c gray9",
". c #1E1E1E",
"X c #23241D",
"o c #272A1E",
"O c #30351C",
"+ c gray15",
"@ c gray18",
"# c gray24",
"$ c #3F442B",
"% c #41423C",
"& c #46483C",
"* c #4A4E3B",
"= c #575E39",
"- c #5C6439",
"; c #606A38",
": c #444444",
"> c #4C4C4C",
", c #50524B",
"< c #535353",
"1 c gray33",
"2 c #585953",
"3 c #5B5B5B",
"4 c #636C40",
"5 c #687240",
"6 c #626262",
"7 c #6A6A6A",
"8 c #717171",
"9 c #797979",
"0 c #788546",
"q c #808C4D",
"w c #84924D",
"e c #8C9955",
"r c #909F54",
"t c #90A054",
"y c #98A75C",
"u c #9CAC5B",
"i c #A8BA62",
"p c #A4C263",
"a c #C0D470",
/* pixels */
"aaaaaaaaaaaaaaaaapaaaaaaaaaaaaaa",
"aaaaaaaaaaaaaaaaaaaaaaaaaaaaaaaa",
"aaaaaaaaaaaaaaaaaaaaaaaaaapaaaaa",
"aaaaaaaaaaaaaaaaaaaaaaaaaaaaaaap",
"aaaaapaaaaaa4uaaaaa5yaaaaaaaaaaa",
"aaaaaaaaaaai#&iaaa03$aaaaaaaaaaa",
"aaaaaaaaaaa$99,;;=6930aaaaaaaaaa",
"aaaaaaaaaaa$9997779930aaaaaaaaaa",
"aaaaaaaaaaa$9999999930aaaaaaaaaa",
"aaaaaaaaaaa$9999999930aaaaaaaaaa",
"aaaaaaaaaaaO:>999996@0aaaaaaapaa",
"aaapaaaaaau2#999999@8*aaaaaaaaaa",
"aaaaaaaaaar<#999999>7@aaaaaaaaaa",
"aaaaaaaaaaa;#><997>3otaaaaaaaaaa",
"paaaaaaaaaai 3699837Xwaaaaaaaaaa",
"aaaaaaaaaaa-6999999930aaaaaaaaaa",
"aaaaaaaaaaa$9999999930aaaaaaaaap",
"aaaaaaaaaaa$9999999930aaaaaaaaaa",
"aaaaaaaaaaa$9999999930aaaaaaaaaa",
"aaaaaaaaaaai#9879699$aaaaaaapaaa",
"apaaaaaaaaai#97>9<19$aaaaaaaaaaa",
"aaaaaaaaaaai#97>93>3qaaaaaaaaaap",
"aaaaaaaaaaai#97>93>>iaaaaaaaaaaa",
"aaaaaaaaaaai#97>93>>iaaaaaaaaaaa",
"aaaaaaaaaaai%97X8<>$aaaaaaaaaaaa",
"aaaaaaaaaaaa;970@.+waaaaaaaaaaaa",
"aaaaaaaaaaaa;970eyiaaaaaaaaaapaa",
"aapaaaaaaaaa;970aaaaaaaaaaaaaaaa",
"aaaaaaaaaaaar<:0aaaaaaaaaaaaaaaa",
"aaaaapaaaaaaaruaaaaaaaaaaaaaaaaa",
"aaaaaaaaaapaaaaaaaaapaaaaaaaaaaa",
"aaaaaaaaaaaaaaaaaaaaaaaaaaapaapa"
};
