/* XPM */
static char *d225d7a287a141e585caccbe54c8f227Fga5oIfzkz9V4JNQ[] = {
/* columns rows colors chars-per-pixel */
"32 32 56 1 ",
"  c black",
". c #0C0D07",
"X c gray3",
"o c gray6",
"O c #161616",
"+ c #1E1E1E",
"@ c #272A1D",
"# c #30351C",
"$ c gray15",
"% c gray18",
"& c #383D23",
"* c #383C24",
"= c #32332D",
"- c #32342D",
"; c #3B3E2C",
": c #353535",
"> c gray24",
", c #3C4223",
"< c #3F442B",
"1 c #48502A",
"2 c #41433C",
"3 c #46483B",
"4 c #4A4E3B",
"5 c #4E533A",
"6 c #505731",
"7 c #545C31",
"8 c #535939",
"9 c #606A38",
"0 c #6C773F",
"q c #6C783F",
"w c #444444",
"e c #484A44",
"r c #4C4C4C",
"t c #515643",
"y c #50514B",
"u c #535353",
"i c #5B5B5B",
"p c #5E6641",
"a c #687240",
"s c #747F47",
"d c #626262",
"f c #6A6A6A",
"g c #727272",
"h c #797979",
"j c #7E7E7E",
"k c #788446",
"l c #84924D",
"z c #909F54",
"x c #90A054",
"c c #9CAD5B",
"v c #A8BA62",
"b c #A4C263",
"n c #B4C769",
"m c #C0D470",
"M c gray56",
"N c #A7A7A7",
/* pixels */
"mmmmmmmmmmmmmmmmmbmmmmmmmmmmmmmm",
"mmmmmmmmmmmmmmmmmmmmmmmmmmmmmmmm",
"mmmmmmmmmmmmmmmmmmmmmmmmmmbmmmmm",
"mmmmmmmmmmmmmmmmmmmmmmmmmmmmmmmb",
"mmmmmbmmmmmmmmmmmmmmmmmmmmmmmmmm",
"mmmmmmmmmmmmmm7pnmmmmmmmmmmmmmmm",
"mmmmmmmmmmmmmn3fpnmmmmmmmmmmmmmm",
"mmmmmmmmmmmmmsdhi,mmmmmmmmmmmmmm",
"mmmmmmmmmmmmm<hhh$mmmmmmmmmmmmmm",
"mmmmmmmmmnvmn&$%%Onmmnmmmmmmmmmm",
"mmmmmmmmmz-z8>dhhh4nl5nmmmmmmbmm",
"mmmbmmmmmzX>>ghhhhfOo vmmmmmmmmm",
"mmmmmmmmmzXwd>%%%%:rw vmmmmmmmmm",
"mmmmmmmmmzoh>fhhhhiuh vmmmmmmmmm",
"bmmmmmmmmzr>>dhhhhii%>vmmmmmmmmm",
"mmmmmmmmmn;rfhhhhhhu$3nmmmmmmmmm",
"mmmmmmmmmm<hhhhhhhhhh9mmmmmmmmmb",
"mmmmmmmmmvthgrghhgrhh,nmmmmmmmmm",
"mmmmmmmmmkihMNhhhMNjh:xmmmmmmmmm",
"mmmmmmmmm9ihh>fhhirhhd*mmmmmbmmm",
"mbmmmmmmmm0+h%hhhh%hh+0mmmmmmmmm",
"mmmmmmmmmmv#%$:oOd$w@vmmmmmmmmmb",
"mmmmmmmmmmmm.>ridwX:kmmmmmmmmmmm",
"mmmmmmmmmmmmkr$urOuikmmmmmmmmmmm",
"mmmmmmmmmmmcyg$6a,hikmmmmmmmmmmm",
"mmmmmmmmmmm9hh=mm1hiqmmmmmmmmmmm",
"mmmmmmmmmmmz>2cmm1hf>zmmmmmmmbmm",
"mmbmmmmmmmmmmmmmmkihh9mmmmmmmmmm",
"mmmmmmmmmmmmmmmmmm=feqmmmmmmmmmm",
"mmmmmbmmmmmmmmmmmmvkvmmmmmmmmmmm",
"mmmmmmmmmmbmmmmmmmmmbmmmmmmmmmmm",
"mmmmmmmmmmmmmmmmmmmmmmmmmmmbmmbm"
};
